<svg viewBox="0 0 60 84" shape-rendering="crispEdges" xmlns="http://www.w3.org/2000/svg"><path fill="#ff6f40" d="M0 0h4v12H0zm8 0h4v12H8z"/><path fill="#0096db" d="M12 0h12v12H12z"/><path fill="#00c58e" d="M24 4h12v4H24z"/><path fill="#00c58e" d="M28 0h4v12h-4zm8 4h12v4H36z"/><path fill="#00c58e" d="M40 0h4v12h-4z"/><path fill="#0096db" d="M48 0h12v12H48z"/><path fill="#ff6f40" d="M0 12h4v12H0zm8 0h4v12H8z"/><path fill="#00c58e" d="M12 16h12v4H12z"/><path fill="#00c58e" d="M16 12h4v12h-4z"/><path fill="#0096db" d="M24 12h12v12H24z"/><path fill="#00c58e" d="M36 16h12v4H36z"/><path fill="#00c58e" d="M40 12h4v12h-4z"/><path fill="#0096db" d="M48 12h12v12H48z"/><path fill="#00c58e" d="M0 28h12v4H0z"/><path fill="#00c58e" d="M4 24h4v12H4zm8 4h12v4H12z"/><path fill="#00c58e" d="M16 24h4v12h-4zM0 40h12v4H0z"/><path fill="#00c58e" d="M4 36h4v12H4z"/><path fill="#ff6f40" d="M12 36h4v12h-4zm8 0h4v12h-4z"/><path fill="#0096db" d="M24 36h12v12H24z"/><path fill="#ff6f40" d="M36 36h4v12h-4zm8 0h4v12h-4z"/><path fill="#00c58e" d="M0 52h12v4H0z"/><path fill="#00c58e" d="M4 48h4v12H4z"/><path fill="#ff6f40" d="M12 48h4v12h-4zm8 0h4v12h-4z"/><path fill="#0096db" d="M24 48h12v12H24z"/><path fill="#ff6f40" d="M36 48h4v12h-4zm8 0h4v12h-4zM0 60h4v12H0zm8 0h4v12H8z"/><path fill="#0096db" d="M12 60h12v12H12z"/><path fill="#ff6f40" d="M0 72h4v12H0zm8 0h4v12H8z"/><path fill="#0096db" d="M12 72h12v12H12z"/></svg>
